<svg width="66" height="66" viewBox="0 0 66 66" fill="none" xmlns="http://www.w3.org/2000/svg">
<rect width="66" height="66" rx="21" fill="#016D41"/>
<path d="M32 20.9533V28.1683" stroke="white" stroke-width="1.5" stroke-miterlimit="10" stroke-linecap="round"/>
<path d="M32.0434 11.3333C24.07 11.3333 17.6134 17.79 17.6134 25.7633V30.3133C17.6134 31.7866 17.0067 33.9966 16.2484 35.2533L13.4967 39.8466C11.8067 42.685 12.9767 45.8483 16.0967 46.8883C26.4534 50.3333 37.655 50.3333 48.0117 46.8883C50.9367 45.9133 52.1934 42.49 50.6117 39.8466L47.86 35.2533C47.1017 33.9966 46.495 31.765 46.495 30.3133V25.7633C46.4734 17.8333 39.9734 11.3333 32.0434 11.3333Z" stroke="white" stroke-width="1.5" stroke-miterlimit="10" stroke-linecap="round"/>
<path d="M39.215 47.7767C39.215 51.7417 35.965 54.9917 32 54.9917C30.0284 54.9917 28.2084 54.1683 26.9084 52.8683C25.6084 51.5683 24.785 49.7483 24.785 47.7767" stroke="white" stroke-width="1.5" stroke-miterlimit="10"/>
</svg>
