<svg width="66" height="66" viewBox="0 0 66 66" fill="none" xmlns="http://www.w3.org/2000/svg">
<rect width="66" height="66" rx="21" fill="#06975C"/>
<path d="M40.25 12.1666V33C40.25 35.2916 38.375 37.1666 36.0833 37.1666H13.1666V20.5C13.1666 15.8958 16.8958 12.1666 21.5 12.1666H40.25Z" stroke="white" stroke-width="1.5" stroke-linecap="round" stroke-linejoin="round"/>
<path d="M54.8333 37.1666V43.4166C54.8333 46.875 52.0416 49.6666 48.5833 49.6666H46.5C46.5 47.375 44.625 45.5 42.3333 45.5C40.0416 45.5 38.1666 47.375 38.1666 49.6666H29.8333C29.8333 47.375 27.9583 45.5 25.6666 45.5C23.375 45.5 21.5 47.375 21.5 49.6666H19.4166C15.9583 49.6666 13.1666 46.875 13.1666 43.4166V37.1666H36.0833C38.375 37.1666 40.25 35.2916 40.25 33V18.4166H44.0833C45.5833 18.4166 46.9583 19.2291 47.7083 20.5208L51.2708 26.75H48.5833C47.4375 26.75 46.5 27.6875 46.5 28.8333V35.0833C46.5 36.2291 47.4375 37.1666 48.5833 37.1666H54.8333Z" stroke="white" stroke-width="1.5" stroke-linecap="round" stroke-linejoin="round"/>
<path d="M25.6667 53.8333C27.9679 53.8333 29.8333 51.9679 29.8333 49.6667C29.8333 47.3655 27.9679 45.5 25.6667 45.5C23.3655 45.5 21.5 47.3655 21.5 49.6667C21.5 51.9679 23.3655 53.8333 25.6667 53.8333Z" stroke="white" stroke-width="1.5" stroke-linecap="round" stroke-linejoin="round"/>
<path d="M42.3333 53.8333C44.6345 53.8333 46.5 51.9679 46.5 49.6667C46.5 47.3655 44.6345 45.5 42.3333 45.5C40.0321 45.5 38.1666 47.3655 38.1666 49.6667C38.1666 51.9679 40.0321 53.8333 42.3333 53.8333Z" stroke="white" stroke-width="1.5" stroke-linecap="round" stroke-linejoin="round"/>
<path d="M54.8333 33V37.1667H48.5833C47.4375 37.1667 46.5 36.2292 46.5 35.0833V28.8333C46.5 27.6875 47.4375 26.75 48.5833 26.75H51.2709L54.8333 33Z" stroke="white" stroke-width="1.5" stroke-linecap="round" stroke-linejoin="round"/>
</svg>
